<svg xmlns="http://www.w3.org/2000/svg" width="7" height="9" viewBox="0 0 7 9" fill="none">
  <path fill="currentColor" d="M3.03409 8.96591C2.39204 8.96591 1.84517 8.79119 1.39346 8.44176C0.941759 8.08949 0.596588 7.57954 0.357952 6.91193C0.119315 6.24147 -2.74181e-06 5.43182 -2.74181e-06 4.48295C-2.74181e-06 3.53977 0.119315 2.73437 0.357952 2.06676C0.599429 1.3963 0.94602 0.88494 1.39772 0.532667C1.85227 0.177554 2.39772 -3.09944e-06 3.03409 -3.09944e-06C3.67045 -3.09944e-06 4.21449 0.177554 4.66619 0.532667C5.12074 0.88494 5.46733 1.3963 5.70596 2.06676C5.94744 2.73437 6.06818 3.53977 6.06818 4.48295C6.06818 5.43182 5.94886 6.24147 5.71022 6.91193C5.47159 7.57954 5.12642 8.08949 4.67471 8.44176C4.22301 8.79119 3.67613 8.96591 3.03409 8.96591ZM3.03409 8.02841C3.67045 8.02841 4.16477 7.72159 4.51704 7.10795C4.86932 6.49432 5.04545 5.61932 5.04545 4.48295C5.04545 3.72727 4.96449 3.0838 4.80255 2.55255C4.64346 2.0213 4.41335 1.61647 4.11221 1.33807C3.81392 1.05966 3.45454 0.920452 3.03409 0.920452C2.40341 0.920452 1.91051 1.23153 1.5554 1.85369C1.20028 2.47301 1.02272 3.34943 1.02272 4.48295C1.02272 5.23863 1.10227 5.88068 1.26136 6.40909C1.42045 6.9375 1.64915 7.33949 1.94744 7.61505C2.24858 7.89062 2.61079 8.02841 3.03409 8.02841Z"/>
</svg>
